<svg xmlns="http://www.w3.org/2000/svg" xmlns:xlink="http://www.w3.org/1999/xlink" viewBox="0 0 420.93 128.83"><defs><style>.cls-1{fill:#f3f3f3;}.cls-2{fill:url(#linear-gradient);}.cls-3{fill:url(#linear-gradient-2);}.cls-4{fill:url(#linear-gradient-3);}.cls-5{fill:url(#linear-gradient-4);}.cls-6{fill:url(#linear-gradient-5);}.cls-7{fill:url(#linear-gradient-6);}.cls-8{fill:url(#linear-gradient-7);}.cls-9{fill:url(#linear-gradient-8);}.cls-10{fill:url(#linear-gradient-9);}.cls-11{fill:url(#linear-gradient-10);}.cls-12{fill:#1db954;}.cls-13{fill:url(#linear-gradient-11);}.cls-14{fill:url(#linear-gradient-12);}.cls-15{fill:url(#linear-gradient-13);}.cls-16{fill:url(#linear-gradient-14);}</style><linearGradient id="linear-gradient" x1="-197.84" y1="437.39" x2="-202.62" y2="427.37" gradientTransform="matrix(2.52, 0, 0, -2.52, 570.54, 1114.18)" gradientUnits="userSpaceOnUse"><stop offset="0.06" stop-color="#1db954"/><stop offset="1" stop-color="#1db954" stop-opacity="0"/></linearGradient><linearGradient id="linear-gradient-2" x1="-195.64" y1="431.59" x2="-190.91" y2="439.72" gradientTransform="matrix(2.52, 0, 0, -2.52, 570.54, 1114.18)" gradientUnits="userSpaceOnUse"><stop offset="0.15" stop-color="#1db954"/><stop offset="0.83" stop-color="#1db954" stop-opacity="0"/></linearGradient><linearGradient id="linear-gradient-3" x1="-205.22" y1="434.8" x2="-207.79" y2="427.64" gradientTransform="matrix(2.52, 0, 0, -2.52, 686.83, 1114.18)" xlink:href="#linear-gradient"/><linearGradient id="linear-gradient-4" x1="-203.76" y1="430.8" x2="-200.57" y2="438.41" gradientTransform="matrix(2.52, 0, 0, -2.52, 686.83, 1114.18)" xlink:href="#linear-gradient"/><linearGradient id="linear-gradient-5" x1="-199.05" y1="412.4" x2="-204.41" y2="404.35" gradientTransform="matrix(2.52, 0, 0, -2.52, 686.83, 1114.18)" xlink:href="#linear-gradient"/><linearGradient id="linear-gradient-6" x1="-202.36" y1="409.75" x2="-198.45" y2="417.7" gradientTransform="matrix(2.52, 0, 0, -2.52, 686.83, 1114.18)" xlink:href="#linear-gradient"/><linearGradient id="linear-gradient-7" x1="-210.06" y1="420.73" x2="-203.89" y2="419.3" gradientTransform="matrix(2.52, 0, 0, -2.52, 686.83, 1114.18)" gradientUnits="userSpaceOnUse"><stop offset="0" stop-color="#1db954"/><stop offset="1" stop-color="#1db954" stop-opacity="0"/></linearGradient><linearGradient id="linear-gradient-8" x1="-212.59" y1="414.97" x2="-203.6" y2="414.72" gradientTransform="matrix(2.52, 0, 0, -2.52, 737.76, 1114.18)" xlink:href="#linear-gradient"/><linearGradient id="linear-gradient-9" x1="-198.28" y1="417.86" x2="-203.73" y2="419.84" gradientTransform="matrix(2.52, 0, 0, -2.52, 832.23, 1114.18)" xlink:href="#linear-gradient-7"/><linearGradient id="linear-gradient-10" x1="-199.4" y1="408.44" x2="-207.67" y2="407.17" gradientTransform="matrix(2.52, 0, 0, -2.52, 832.23, 1114.18)" xlink:href="#linear-gradient-7"/><linearGradient id="linear-gradient-11" x1="-197.59" y1="403.39" x2="-202.57" y2="411.18" gradientTransform="matrix(2.52, 0, 0, -2.52, 872.8, 1114.18)" gradientUnits="userSpaceOnUse"><stop offset="0.14" stop-color="#fff"/><stop offset="1" stop-color="#1db954"/></linearGradient><linearGradient id="linear-gradient-12" x1="-205.48" y1="402.99" x2="-201.9" y2="397.31" gradientTransform="matrix(2.52, 0, 0, -2.52, 872.8, 1114.18)" gradientUnits="userSpaceOnUse"><stop offset="0.15" stop-color="#1db954"/><stop offset="1" stop-color="#1db954" stop-opacity="0"/></linearGradient><linearGradient id="linear-gradient-13" x1="-203.67" y1="428.48" x2="-204.49" y2="419.26" gradientTransform="matrix(2.52, 0, 0, -2.52, 908.67, 1114.18)" xlink:href="#linear-gradient"/><linearGradient id="linear-gradient-14" x1="-201.36" y1="426.42" x2="-201.22" y2="431.05" gradientTransform="matrix(2.52, 0, 0, -2.52, 908.67, 1114.18)" xlink:href="#linear-gradient"/></defs><title>Asset 1</title><g id="Layer_2" data-name="Layer 2"><g id="svg361162"><g id="path361171"><path class="cls-1" d="M124.48,1.45,111.6,7.26c2.54,13.79-.91,33.21-4.36,44.27-9.44,30.12-24.13,39.2-34.11,39.2-15.6,0-17.6-16.51-14.88-31.57A96.93,96.93,0,0,1,72,24.68a50.56,50.56,0,0,0,14.33,2.18c10.53,0,18.14-5.81,18.14-14.15,0-6.9-5.26-12.7-15.24-12.7C81.66,0,74.4,4,68,10.34,58.25,5.81,47,0,31.21,0,14.52,0,0,11.79,0,28.49,0,41.91,11.25,52.26,24.32,52.26c12,0,20.87-8.71,20.87-20.87a14.8,14.8,0,0,0-6.71-12l-7.62,8.17a6.85,6.85,0,0,1,1.63,4.36c0,4.36-3.63,7.62-8.53,7.62A11.15,11.15,0,0,1,12.7,28.49C12.7,18.33,21.78,12,31.21,12c11.07,0,20,4.17,29,8.17a98.24,98.24,0,0,0-14.7,37.74c-3.27,20.69,1.09,45.18,27.94,45.18,18.14,0,36.65-16.15,46.45-49.54C124.12,39,126.84,19.6,124.48,1.45Zm-35.2,9.8c1.45,0,3.63.73,3.63,2,0,1.45-2.54,2.72-6,2.72a27,27,0,0,1-6.53-.91C83.29,12.7,86.37,11.25,89.28,11.25Z"/><path class="cls-2" d="M60.24,20.14a98.24,98.24,0,0,0-14.7,37.74l12.7,1.27A96.93,96.93,0,0,1,72,24.68,118.64,118.64,0,0,1,60.24,20.14Z"/><path class="cls-3" d="M89.28,0C81.66,0,74.4,4,68,10.34a76,76,0,0,0,12.34,4.72c2.9-2.36,6-3.81,8.89-3.81,1.45,0,3.63.73,3.63,2l11.61-.54C104.52,5.81,99.26,0,89.28,0Z"/></g><g id="path361173"><path class="cls-1" d="M120.39,96c-1.63-3.63-2.18-9.8.18-18.33l9.26-34.11H142L131.83,81.47c-1.45,5.26-2.18,9.62.18,10.52,3.27,1.27,10-6.53,15.43-22.86l10.71,2.54c-6.17,18-14,31.39-27,31.39A12.22,12.22,0,0,1,120.39,96Zm18.87-74.21A6.38,6.38,0,0,1,146,28.49a6.74,6.74,0,0,1-6.71,6.9,6.89,6.89,0,0,1-6.9-6.9A6.74,6.74,0,0,1,139.27,21.77Z"/></g><g id="path361175"><path class="cls-1" d="M202.74,69.14c-1.81,6.35-5.81,8.71-9.44,8.71a4,4,0,0,1-1.45-.18c5.26-17.42,1.45-31-8.89-34.84a15,15,0,0,0-4.72-.73c-4.35,0-8.71,1.81-12.7,4.54A97.4,97.4,0,0,1,172.07,29c4.72,2.18,10,4.35,17.78,4.35,12.34,0,21.41-7.08,21.23-17.42-.18-9.62-8.35-16-19.42-16-9.8,0-18,5.63-24.5,14.7a35.93,35.93,0,0,0-22.68-.54l3.27,10.16a25.56,25.56,0,0,1,13.43.36,127.64,127.64,0,0,0-7.08,18.87L148.3,64.42c-5.81,18.87-2.18,34.48,11.25,38.11a22.52,22.52,0,0,0,4.9.55c8,0,16.69-4.9,22.68-14.52a18.57,18.57,0,0,0,6,.73c6.71,0,15.79-3.08,20.32-17.6Zm-10-58.25c4.72,0,7.26,2.54,7.26,5.44,0,3.27-3.08,6.53-10,6.53-4.17,0-8.17-1.45-12.16-3.27C182.05,14.34,187,10.89,192.76,10.89ZM182.05,68.77c-4,.73-8.35,9.44-4.72,13.43-4,6.71-9.8,10-14,9.07-5.44-1.27-8.17-8.53-4.72-20,4-13.25,13.07-19.78,19.42-17.78C182.42,54.8,183.69,60.61,182.05,68.77Z"/><path class="cls-4" d="M161.19,24.68a127.64,127.64,0,0,0-7.08,18.87L148.3,64.42l14.13-6.66,3.11-11.12A97.4,97.4,0,0,1,172.07,29,105.38,105.38,0,0,0,161.19,24.68Z"/><path class="cls-5" d="M191.67,0c-9.8,0-18,5.63-24.5,14.7,4.64,1.63,7.29,3.34,10.71,4.9,4.17-5.26,9.07-8.71,14.88-8.71Z"/><path class="cls-6" d="M177.34,82.2c-4,6.71-9.8,10-14,9.07l-3.81,11.25a22.52,22.52,0,0,0,4.9.55c8,0,16.69-4.9,22.68-14.52C183,87.36,178.79,84.28,177.34,82.2Z"/><path class="cls-7" d="M178.06,53.53c4.35,1.27,5.62,7.08,4,15.24.41,4.19,5.08,8.09,9.8,8.89,5.26-17.42,1.45-31-8.89-34.84Z"/><path class="cls-8" d="M183,42.82a15,15,0,0,0-4.72-.73c-4.35,0-8.71,1.81-12.7,4.54l-6.9,24.68c4-13.25,13.07-19.78,19.42-17.78,2.77.81,4.3,3.45,4.61,7.38l11-3.77C192.41,50,188.68,44.93,183,42.82Z"/></g><g id="path361177"><path class="cls-1" d="M248.59,69.13c-7.44,18.51-20.14,22.68-26.49,22.68-4,0-9.62-3.27-9.62-10.71C225,80,242.42,73.12,245,58.42c.73-4.35.18-8.35-2.9-11.79-2.54-2.9-6.71-4.54-11.61-4.54-19.42,0-29.58,22-29.94,37.56-.36,12.88,7.8,23.41,20.69,23.41,8.71,0,25.95-3.08,38.11-31.39ZM220.82,58.24c2.72-3.08,8-6.71,12-4.17a3.74,3.74,0,0,1,1.63,2.9c0,6-11.43,11.61-20,12.7A34,34,0,0,1,220.82,58.24Z"/><path class="cls-9" d="M212.48,81.11C225,80,242.42,73.12,245,58.42L234.43,57c0,6-11.43,11.61-20,12.7A35.3,35.3,0,0,0,212.48,81.11Z"/></g><g id="path361179"><path class="cls-1" d="M246.39,79.47c.73-15.6,10.89-37.38,28.49-37.38a15.2,15.2,0,0,1,12.88,6.53,19.54,19.54,0,0,1,3.08,7.08l-9.62,3.63c-.91-3.63-3.08-5.44-5.81-5.63-6.71-.36-12.88,8.35-15.6,17.06-2.9,9.25-2.9,20.69,8.17,21,6.9.18,16.15-5.26,23.23-22.68l10.71,2.54c-10.89,27.58-25.77,31.39-34.66,31.39C254.37,103.06,245.66,92.36,246.39,79.47Z"/></g><g id="path361181"><path class="cls-1" d="M349.7,69.13c-6.53,18-12,23.23-14.88,22.68-2.36-.36-2.18-5.26-.73-10.53l10.16-37.74H332.1l-1.09,4a14.06,14.06,0,0,0-11.61-5.44c-12.52,0-22.86,10.52-28.13,25.59-6.35,18-1.81,35.38,13.79,35.38,6.35,0,12.34-3.45,17.24-8.35a12.27,12.27,0,0,0,11.43,8.35c12.34,0,20.5-13.61,26.49-31.39ZM326.29,65l-1.81,6.71c-4,13.79-13.25,22-19.42,19.78-5.26-1.81-6.71-9.25-1.81-21.78,4.36-11.25,11.8-17.78,18.51-15.6C324.84,55.16,327.56,59.15,326.29,65Z"/><path class="cls-10" d="M331,47.54a14.06,14.06,0,0,0-11.61-5.44c-11,0-20.27,8.09-25.95,20.22h13.5c4.26-6.57,9.74-9.89,14.81-8.25,3.08,1.09,5.81,5.08,4.54,10.89Z"/><path class="cls-11" d="M305.06,91.45c-4.21-1.45-6-6.51-4-14.88H289c-2.25,14.41,3.07,26.49,16.06,26.49,6.35,0,12.34-3.45,17.24-8.35-2.47-6.58.13-15.92,2.18-23C320.49,85.46,311.23,93.63,305.06,91.45Z"/></g><g id="path361183"><path class="cls-12" d="M395.48,71.67l-10.71-2.54c-2.36,7.08-6.71,12.16-12.7,16.33-7.26-13.25-15.79-21.41-13.79-27.58a6.12,6.12,0,0,1,8-4.17,5.88,5.88,0,0,1,3.63,4.9L379,55.16a16.38,16.38,0,0,0-2.72-7.26,14.64,14.64,0,0,0-12.16-5.81c-8.89,0-14.88,5.26-16.88,12.88-3.63,14.15,8.89,24.86,15.06,36.11-2.9,1.45-6.17,2.9-9.44,4.35-16,7.08-19.6,14.88-18.14,21.77,1.45,6.53,7.8,11.61,16.51,11.61,15.06,0,28.85-14.52,25-32.66C383.5,91.09,391.12,84.92,395.48,71.67ZM353,117.58c-3.63.73-6.35-.18-6.71-2.18-.36-1.63.36-4.36,7.44-8,4-2,7.8-3.63,11.61-5.26C365.18,111.59,356.83,116.85,353,117.58Z"/><path class="cls-13" d="M372.07,85.46c-7.26-13.25-15.79-21.41-13.79-27.58L347.21,55c-3.63,14.15,8.89,24.86,15.06,36.11A72.16,72.16,0,0,0,372.07,85.46Z"/><path class="cls-14" d="M365.36,102.16c-.18,9.44-8.53,14.7-12.34,15.42l-1.81,11.25c15.06,0,28.85-14.52,25-32.66A58,58,0,0,1,365.36,102.16Z"/></g><g id="path361185"><path class="cls-1" d="M383,74l8.17-30.48h-9.62l2.9-10.89h9.8L396.8,23H409l-2.54,9.62h12.52L416,43.55H403.52l-8.35,30.67c-2.18,8-5.44,18-.73,18,4,0,10.34-6.71,15.79-23l10.71,2.54c-6.17,18-14.7,31.39-27.58,31.39C378.48,103.07,379.2,87.82,383,74Z"/><polygon class="cls-15" points="395.17 74.21 403.52 43.55 391.18 43.55 383.01 74.03 395.17 74.21"/><polygon class="cls-16" points="396.8 23.04 394.26 32.66 406.42 32.66 408.96 23.04 396.8 23.04"/></g></g></g></svg>