<?xml version="1.0" encoding="utf-8"?>
<!-- Generator: Adobe Illustrator 21.0.0, SVG Export Plug-In . SVG Version: 6.00 Build 0)  -->
<svg version="1.1"
	 id="svg361162" xmlns:cc="http://creativecommons.org/ns#" xmlns:dc="http://purl.org/dc/elements/1.1/" xmlns:rdf="http://www.w3.org/1999/02/22-rdf-syntax-ns#" xmlns:svg="http://www.w3.org/2000/svg"
	 xmlns="http://www.w3.org/2000/svg" xmlns:xlink="http://www.w3.org/1999/xlink" x="0px" y="0px" viewBox="0 0 1024 768"
	 style="enable-background:new 0 0 1024 768;" xml:space="preserve">
<style type="text/css">
	.st0{clip-path:url(#SVGID_3_);}
	.st1{fill:#F3F3F3;}
	.st2{fill:url(#SVGID_5_);}
	.st3{fill:url(#SVGID_6_);}
	.st4{fill:url(#SVGID_7_);}
	.st5{fill:url(#SVGID_8_);}
	.st6{fill:url(#SVGID_9_);}
	.st7{fill:url(#SVGID_10_);}
	.st8{fill:url(#SVGID_11_);}
	.st9{fill:url(#SVGID_12_);}
	.st10{fill:url(#SVGID_13_);}
	.st11{fill:url(#SVGID_14_);}
	.st12{fill:#1DB954;}
	.st13{fill:url(#SVGID_15_);}
	.st14{fill:url(#SVGID_16_);}
	.st15{fill:url(#SVGID_17_);}
	.st16{fill:url(#SVGID_18_);}
	.st17{clip-path:url(#SVGID_21_);}
</style>
<g>
	<defs>
		<polygon id="SVGID_1_" points="1,1 2,1 1,2 		"/>
	</defs>
	<defs>
		<polygon id="SVGID_2_" points="-1,-1 -2,-1 -1,-2 		"/>
	</defs>
	<clipPath id="SVGID_3_">
		<use xlink:href="#SVGID_1_"  style="overflow:visible;"/>
	</clipPath>
	<clipPath id="SVGID_4_" class="st0">
		<use xlink:href="#SVGID_2_"  style="overflow:visible;"/>
	</clipPath>
</g>
<g id="slogan" transform="translate(0 0)">
</g>
<g>
	
		<g id="path361171" transform="translate(0 330.8752) translate(301.5338524999999 -11.286400000000008) scale(2.52) translate(-436.59519 40.32)">
		<path class="st1" d="M486-39.7l-5.1,2.3c1,5.5-0.4,13.2-1.7,17.6c-3.7,12-9.6,15.6-13.5,15.6c-6.2,0-7-6.6-5.9-12.5
			c0.8-4.6,3-9.9,5.5-13.7c1.7,0.5,3.6,0.9,5.7,0.9c4.2,0,7.2-2.3,7.2-5.6c0-2.7-2.1-5-6-5c-3,0-5.9,1.6-8.4,4.1
			c-3.9-1.8-8.4-4.1-14.6-4.1c-6.6,0-12.4,4.7-12.4,11.3c0,5.3,4.5,9.4,9.6,9.4c4.8,0,8.3-3.5,8.3-8.3c0-1.9-1.2-3.9-2.7-4.8l-3,3.2
			c0.4,0.4,0.6,1.2,0.6,1.7c0,1.7-1.4,3-3.4,3c-2.4,0-4.5-1.9-4.5-4.4c0-4,3.6-6.6,7.3-6.6c4.4,0,7.9,1.7,11.5,3.2
			c-2.9,4.3-5,9.9-5.8,15c-1.3,8.2,0.4,17.9,11.1,17.9c7.2,0,14.5-6.4,18.4-19.7C485.8-24.8,486.9-32.5,486-39.7z M472-35.9
			c0.6,0,1.4,0.3,1.4,0.8c0,0.6-1,1.1-2.4,1.1c-0.9,0-1.7-0.1-2.6-0.4C469.6-35.3,470.9-35.9,472-35.9z"/>
		
			<linearGradient id="SVGID_5_" gradientUnits="userSpaceOnUse" x1="358.0873" y1="133.2458" x2="353.3028" y2="123.2339" gradientTransform="matrix(2.52 0 0 -2.52 -437.2191 300.2091)">
			<stop  offset="5.566000e-02" style="stop-color:#1DB954"/>
			<stop  offset="1" style="stop-color:#1DB954;stop-opacity:0"/>
		</linearGradient>
		<path class="st2" d="M460.5-32.3c-2.9,4.3-5,9.9-5.8,15l5,0.5c0.8-4.6,3-9.9,5.5-13.7C463.9-30.9,462.1-31.6,460.5-32.3z"/>
		
			<linearGradient id="SVGID_6_" gradientUnits="userSpaceOnUse" x1="358.9613" y1="130.947" x2="363.6888" y2="139.0783" gradientTransform="matrix(2.52 0 0 -2.52 -437.2191 300.2091)">
			<stop  offset="0.1497" style="stop-color:#1DB954"/>
			<stop  offset="0.8263" style="stop-color:#1DB954;stop-opacity:0"/>
		</linearGradient>
		<path class="st3" d="M472-40.3c-3,0-5.9,1.6-8.4,4.1c1.8,0.8,3.5,1.5,4.9,1.9c1.2-0.9,2.4-1.5,3.5-1.5c0.6,0,1.4,0.3,1.4,0.8
			l4.6-0.2C478.1-38,476-40.3,472-40.3z"/>
	</g>
	
		<g id="path361173" transform="translate(0 330.8752) translate(420.5185504999998 10.486399999999996) scale(2.52) translate(-483.81134 31.68)">
		<path class="st1" d="M484.4-2.2c-0.6-1.4-0.9-3.9,0.1-7.3l3.7-13.5h4.8l-4,15c-0.6,2.1-0.9,3.8,0.1,4.2c1.3,0.5,4-2.6,6.1-9.1
			l4.2,1c-2.4,7.1-5.5,12.5-10.7,12.5C486.5,0.6,484.9-0.9,484.4-2.2z M491.9-31.7c1.7,0,2.7,1.2,2.7,2.7s-1.2,2.7-2.7,2.7
			c-1.5,0-2.7-1.2-2.7-2.7S490.3-31.7,491.9-31.7z"/>
	</g>
	
		<g id="path361175" transform="translate(0 330.8752) translate(446.0252848999999 -11.286400000000008) scale(2.52) translate(-493.93306 40.32)">
		<path class="st1" d="M517-12.9c-0.7,2.5-2.3,3.5-3.7,3.5c-0.2,0-0.4,0-0.6-0.1c2.1-6.9,0.6-12.3-3.5-13.8
			c-0.6-0.2-1.4-0.3-1.9-0.3c-1.7,0-3.5,0.7-5,1.8c0.6-2.4,1.5-4.8,2.6-7c1.9,0.9,4,1.7,7.1,1.7c4.9,0,8.5-2.8,8.4-6.9
			c-0.1-3.8-3.3-6.3-7.7-6.3c-3.9,0-7.1,2.2-9.7,5.8c-2.9-1-6-1.2-9-0.2l1.3,4c2.1-0.4,3.7-0.4,5.3,0.1c-1.1,2.2-2,4.8-2.8,7.5
			l-2.3,8.3c-2.3,7.5-0.9,13.7,4.5,15.1c0.6,0.1,1.3,0.2,1.9,0.2c3.2,0,6.6-1.9,9-5.8c0.6,0.2,1.4,0.3,2.4,0.3c2.7,0,6.3-1.2,8.1-7
			L517-12.9z M513.1-36c1.9,0,2.9,1,2.9,2.2c0,1.3-1.2,2.6-4,2.6c-1.7,0-3.2-0.6-4.8-1.3C508.8-34.6,510.8-36,513.1-36z M508.8-13
			c-1.6,0.3-3.3,3.7-1.9,5.3c-1.6,2.7-3.9,4-5.5,3.6c-2.2-0.5-3.2-3.4-1.9-7.9c1.6-5.3,5.2-7.8,7.7-7.1
			C509-18.6,509.5-16.3,508.8-13z"/>
		
			<linearGradient id="SVGID_7_" gradientUnits="userSpaceOnUse" x1="355.1605" y1="132.2194" x2="352.5874" y2="125.0595" gradientTransform="matrix(2.52 0 0 -2.52 -391.0718 300.2096)">
			<stop  offset="5.566000e-02" style="stop-color:#1DB954"/>
			<stop  offset="1" style="stop-color:#1DB954;stop-opacity:0"/>
		</linearGradient>
		<path class="st4" d="M500.6-30.5c-1.1,2.2-2,4.8-2.8,7.5l-2.3,8.3l5.6-2.6l1.2-4.4c0.6-2.4,1.5-4.8,2.6-7
			C503.3-29.5,502.1-30.1,500.6-30.5z"/>
		
			<linearGradient id="SVGID_8_" gradientUnits="userSpaceOnUse" x1="355.74" y1="130.6323" x2="358.9224" y2="138.2424" gradientTransform="matrix(2.52 0 0 -2.52 -391.0718 300.2096)">
			<stop  offset="5.566000e-02" style="stop-color:#1DB954"/>
			<stop  offset="1" style="stop-color:#1DB954;stop-opacity:0"/>
		</linearGradient>
		<path class="st5" d="M512.7-40.3c-3.9,0-7.1,2.2-9.7,5.8c1.8,0.6,2.9,1.3,4.2,1.9c1.7-2.1,3.6-3.5,5.9-3.5L512.7-40.3z"/>
		
			<linearGradient id="SVGID_9_" gradientUnits="userSpaceOnUse" x1="357.6061" y1="123.3299" x2="352.249" y2="115.2789" gradientTransform="matrix(2.52 0 0 -2.52 -391.0718 300.2096)">
			<stop  offset="5.566000e-02" style="stop-color:#1DB954"/>
			<stop  offset="1" style="stop-color:#1DB954;stop-opacity:0"/>
		</linearGradient>
		<path class="st6" d="M507-7.7c-1.6,2.7-3.9,4-5.5,3.6l-1.5,4.5c0.6,0.1,1.3,0.2,1.9,0.2c3.2,0,6.6-1.9,9-5.8
			C509.2-5.7,507.5-6.9,507-7.7z"/>
		
			<linearGradient id="SVGID_10_" gradientUnits="userSpaceOnUse" x1="356.2921" y1="122.28" x2="360.2074" y2="130.2245" gradientTransform="matrix(2.52 0 0 -2.52 -391.0718 300.2096)">
			<stop  offset="5.566000e-02" style="stop-color:#1DB954"/>
			<stop  offset="1" style="stop-color:#1DB954;stop-opacity:0"/>
		</linearGradient>
		<path class="st7" d="M507.3-19.1c1.7,0.5,2.2,2.8,1.6,6c0.2,1.7,2,3.2,3.9,3.5c2.1-6.9,0.6-12.3-3.5-13.8L507.3-19.1z"/>
		
			<linearGradient id="SVGID_11_" gradientUnits="userSpaceOnUse" x1="353.2397" y1="126.6354" x2="359.4047" y2="125.207" gradientTransform="matrix(2.52 0 0 -2.52 -391.0718 300.2096)">
			<stop  offset="0" style="stop-color:#1DB954"/>
			<stop  offset="1" style="stop-color:#1DB954;stop-opacity:0"/>
		</linearGradient>
		<path class="st8" d="M509.2-23.3c-0.6-0.2-1.4-0.3-1.9-0.3c-1.7,0-3.5,0.7-5,1.8l-2.7,9.8c1.6-5.3,5.2-7.8,7.7-7.1
			c1.1,0.3,1.7,1.4,1.8,2.9l4.4-1.5C512.9-20.5,511.5-22.5,509.2-23.3z"/>
	</g>
	
		<g id="path361177" transform="translate(0 330.8752) translate(502.02192770000005 30.807679999999998) scale(2.52) translate(-516.15395 23.616)">
		<path class="st1" d="M535.2-12.9c-3,7.3-8,9-10.5,9c-1.6,0-3.8-1.3-3.8-4.2c5-0.4,11.9-3.2,12.9-9c0.3-1.7,0.1-3.3-1.2-4.7
			c-1-1.2-2.7-1.8-4.6-1.8c-7.7,0-11.7,8.7-11.9,14.9c-0.1,5.1,3.1,9.3,8.2,9.3c3.5,0,10.3-1.2,15.1-12.5L535.2-12.9z M524.2-17.2
			c1.1-1.2,3.2-2.7,4.8-1.7c0.4,0.3,0.6,0.8,0.6,1.2c0,2.4-4.5,4.6-7.9,5C522.2-14.3,523.1-15.8,524.2-17.2z"/>
		
			<linearGradient id="SVGID_12_" gradientUnits="userSpaceOnUse" x1="352.2343" y1="124.3489" x2="361.2208" y2="124.1076" gradientTransform="matrix(2.52 0 0 -2.52 -370.8646 300.208)">
			<stop  offset="5.566000e-02" style="stop-color:#1DB954"/>
			<stop  offset="1" style="stop-color:#1DB954;stop-opacity:0"/>
		</linearGradient>
		<path class="st9" d="M520.9-8.1c5-0.4,11.9-3.2,12.9-9l-4.2-0.6c0,2.4-4.5,4.6-7.9,5C521.2-11.2,520.9-9.7,520.9-8.1z"/>
	</g>
	
		<g id="path361179" transform="translate(0 330.8752) translate(547.8786701 30.807679999999998) scale(2.52) translate(-534.35107 23.616)">
		<path class="st1" d="M534.4-8.8c0.3-6.2,4.3-14.8,11.3-14.8c1.9,0,3.9,0.8,5.1,2.6c0.7,1.1,1,1.9,1.2,2.8l-3.8,1.4
			c-0.4-1.4-1.2-2.2-2.3-2.2c-2.7-0.1-5.1,3.3-6.2,6.8c-1.2,3.7-1.2,8.2,3.2,8.4c2.7,0.1,6.4-2.1,9.2-9l4.2,1
			c-4.3,10.9-10.2,12.5-13.8,12.5C537.5,0.6,534.1-3.7,534.4-8.8z"/>
	</g>
	
		<g id="path361181" transform="translate(0 330.8752) translate(590.0307604999999 30.807679999999998) scale(2.52) translate(-551.07809 23.616)">
		<path class="st1" d="M575.4-12.9c-2.6,7.1-4.8,9.2-5.9,9c-0.9-0.1-0.9-2.1-0.3-4.2l4-15h-4.8l-0.4,1.6c-1-1.3-2.5-2.2-4.6-2.2
			c-5,0-9.1,4.2-11.2,10.2c-2.5,7.1-0.7,14,5.5,14c2.5,0,4.9-1.4,6.8-3.3c0.6,1.9,2.5,3.3,4.5,3.3c4.9,0,8.1-5.4,10.5-12.5
			L575.4-12.9z M566.1-14.5l-0.7,2.7c-1.6,5.5-5.3,8.7-7.7,7.8c-2.1-0.7-2.7-3.7-0.7-8.6c1.7-4.5,4.7-7.1,7.3-6.2
			C565.5-18.4,566.6-16.8,566.1-14.5z"/>
		
			<linearGradient id="SVGID_13_" gradientUnits="userSpaceOnUse" x1="357.9137" y1="125.4965" x2="352.4637" y2="127.4784" gradientTransform="matrix(2.52 0 0 -2.52 -333.3761 300.208)">
			<stop  offset="0" style="stop-color:#1DB954"/>
			<stop  offset="1" style="stop-color:#1DB954;stop-opacity:0"/>
		</linearGradient>
		<path class="st10" d="M567.9-21.5c-1-1.3-2.5-2.2-4.6-2.2c-4.4,0-8,3.2-10.3,8h5.4c1.7-2.6,3.9-3.9,5.9-3.3c1.2,0.4,2.3,2,1.8,4.3
			L567.9-21.5z"/>
		
			<linearGradient id="SVGID_14_" gradientUnits="userSpaceOnUse" x1="357.4663" y1="121.7604" x2="349.1983" y2="120.4908" gradientTransform="matrix(2.52 0 0 -2.52 -333.3761 300.208)">
			<stop  offset="0" style="stop-color:#1DB954"/>
			<stop  offset="1" style="stop-color:#1DB954;stop-opacity:0"/>
		</linearGradient>
		<path class="st11" d="M557.7-4c-1.7-0.6-2.4-2.6-1.6-5.9h-4.8c-0.9,5.7,1.2,10.5,6.4,10.5c2.5,0,4.9-1.4,6.8-3.3
			c-1-2.6,0.1-6.3,0.9-9.1C563.8-6.4,560.1-3.2,557.7-4z"/>
	</g>
	
		<g id="path361183" transform="translate(0 330.8752) translate(635.9328628999999 30.807679999999998) scale(2.52) translate(-569.29321 23.616)">
		<path class="st12" d="M593.5-11.9l-4.2-1c-0.9,2.8-2.7,4.8-5,6.5c-2.9-5.3-6.3-8.5-5.5-10.9c0.4-1.5,1.9-2.1,3.2-1.7
			c1.1,0.4,1.4,1.6,1.4,1.9l3.6-1.4c-0.1-0.8-0.4-1.9-1.1-2.9c-1.1-1.5-2.9-2.3-4.8-2.3c-3.5,0-5.9,2.1-6.7,5.1
			c-1.4,5.6,3.5,9.9,6,14.3c-1.2,0.6-2.4,1.2-3.7,1.7c-6.3,2.8-7.8,5.9-7.2,8.6c0.6,2.6,3.1,4.6,6.6,4.6c6,0,11.4-5.8,9.9-13
			C588.8-4.2,591.8-6.6,593.5-11.9z M576.7,6.3c-1.4,0.3-2.5-0.1-2.7-0.9c-0.1-0.6,0.1-1.7,3-3.2c1.6-0.8,3.1-1.4,4.6-2.1
			C581.5,4,578.2,6.1,576.7,6.3z"/>
		
			<linearGradient id="SVGID_15_" gradientUnits="userSpaceOnUse" x1="358.1856" y1="119.756" x2="353.2039" y2="127.5479" gradientTransform="matrix(2.52 0 0 -2.52 -317.2737 300.2079)">
			<stop  offset="0.1405" style="stop-color:#FFFFFF"/>
			<stop  offset="1" style="stop-color:#1DB954"/>
		</linearGradient>
		<path class="st13" d="M584.2-6.4c-2.9-5.3-6.3-8.5-5.5-10.9l-4.4-1.2c-1.4,5.6,3.5,9.9,6,14.3C581.7-4.8,583.6-5.9,584.2-6.4z"/>
		
			<linearGradient id="SVGID_16_" gradientUnits="userSpaceOnUse" x1="355.0574" y1="119.5966" x2="358.6341" y2="113.9123" gradientTransform="matrix(2.52 0 0 -2.52 -317.2737 300.2079)">
			<stop  offset="0.1514" style="stop-color:#1DB954"/>
			<stop  offset="1" style="stop-color:#1DB954;stop-opacity:0"/>
		</linearGradient>
		<path class="st14" d="M581.6,0.2c-0.1,3.7-3.4,5.8-4.9,6.1l-0.7,4.5c6,0,11.4-5.8,9.9-13C585-1.4,582.9-0.3,581.6,0.2z"/>
	</g>
	
		<g id="path361185" transform="translate(0 330.8752) translate(682.2133685 11.756480000000003) scale(2.52) translate(-587.65849 31.176)">
		<path class="st1" d="M588.6-10.9l3.2-12.1H588l1.2-4.3h3.9l1-3.8h4.8l-1,3.8h5l-1.2,4.3h-5l-3.3,12.2c-0.9,3.2-2.2,7.1-0.3,7.1
			c1.6,0,4.1-2.7,6.3-9.1l4.2,1c-2.4,7.1-5.8,12.5-10.9,12.5C586.8,0.6,587.1-5.5,588.6-10.9z"/>
		
			<linearGradient id="SVGID_17_" gradientUnits="userSpaceOnUse" x1="355.7725" y1="129.7131" x2="354.9585" y2="120.4876" gradientTransform="matrix(2.52 0 0 -2.52 -303.0403 300.2086)">
			<stop  offset="5.566000e-02" style="stop-color:#1DB954"/>
			<stop  offset="1" style="stop-color:#1DB954;stop-opacity:0"/>
		</linearGradient>
		<polygon class="st15" points="593.4,-10.9 596.7,-23 591.8,-23 588.6,-10.9 		"/>
		
			<linearGradient id="SVGID_18_" gradientUnits="userSpaceOnUse" x1="356.6919" y1="128.8947" x2="356.8321" y2="133.522" gradientTransform="matrix(2.52 0 0 -2.52 -303.0403 300.2086)">
			<stop  offset="5.566000e-02" style="stop-color:#1DB954"/>
			<stop  offset="1" style="stop-color:#1DB954;stop-opacity:0"/>
		</linearGradient>
		<polygon class="st16" points="594.1,-31.2 593,-27.4 597.9,-27.4 598.9,-31.2 		"/>
	</g>
</g>
<g>
	<defs>
		<polygon id="SVGID_19_" points="1,1 2,1 1,2 		"/>
	</defs>
	<defs>
		<polygon id="SVGID_20_" points="-1,-1 -2,-1 -1,-2 		"/>
	</defs>
	<clipPath id="SVGID_21_">
		<use xlink:href="#SVGID_19_"  style="overflow:visible;"/>
	</clipPath>
	<clipPath id="SVGID_22_" class="st17">
		<use xlink:href="#SVGID_20_"  style="overflow:visible;"/>
	</clipPath>
</g>
</svg>
